<svg width="866" height="375" xmlns="http://www.w3.org/2000/svg" xmlns:xlink="http://www.w3.org/1999/xlink" overflow="hidden"><defs><clipPath id="clip0"><rect x="249" y="149" width="866" height="375"/></clipPath><clipPath id="clip1"><rect x="1042" y="70" width="70" height="203"/></clipPath><clipPath id="clip2"><rect x="742" y="273" width="88" height="203"/></clipPath><clipPath id="clip3"><rect x="819" y="212" width="44" height="44"/></clipPath><clipPath id="clip4"><rect x="819" y="212" width="44" height="44"/></clipPath><clipPath id="clip5"><rect x="819" y="212" width="44" height="44"/></clipPath><clipPath id="clip6"><rect x="419" y="212" width="44" height="44"/></clipPath><clipPath id="clip7"><rect x="419" y="212" width="44" height="44"/></clipPath><clipPath id="clip8"><rect x="419" y="212" width="44" height="44"/></clipPath></defs><g clip-path="url(#clip0)" transform="translate(-249 -149)"><text font-family="Cambria Math,Cambria Math_MSFontService,sans-serif" font-weight="400" font-size="24" transform="translate(399.964 238)">𝑃<tspan font-size="18" x="12.2533" y="5">0</tspan></text><path d="M480.5 246C480.5 214.796 524.824 189.5 579.5 189.5 634.176 189.5 678.5 214.796 678.5 246 678.5 277.204 634.176 302.5 579.5 302.5 524.824 302.5 480.5 277.204 480.5 246Z" stroke="#41719C" stroke-width="1.33333" stroke-miterlimit="8" fill="#5B9BD5" fill-rule="evenodd" fill-opacity="0.501961"/><text font-family="Times New Roman,Times New Roman_MSFontService,sans-serif" font-weight="700" font-size="27" transform="translate(569.095 256)">X</text><path d="M640.5 246C640.5 214.796 679.675 189.5 728 189.5 776.325 189.5 815.5 214.796 815.5 246 815.5 277.204 776.325 302.5 728 302.5 679.675 302.5 640.5 277.204 640.5 246Z" stroke="#BC8C00" stroke-width="1.33333" stroke-miterlimit="8" fill="#FFC000" fill-rule="evenodd" fill-opacity="0.501961"/><text font-family="Times New Roman,Times New Roman_MSFontService,sans-serif" font-weight="700" font-size="27" transform="translate(734.621 256)">Y</text><path d="M250.641 156.98 318.116 156.98 318.116 185.78 250.641 185.78Z" fill="#5B9BD5" fill-rule="evenodd"/><path d="M318.116 156.98 387.594 156.98 387.594 185.78 318.116 185.78Z" fill="#5B9BD5" fill-rule="evenodd"/><path d="M250.641 185.78 318.116 185.78 318.116 214.58 250.641 214.58Z" fill="#D2DEEF" fill-rule="evenodd"/><path d="M318.116 185.78 387.594 185.78 387.594 214.58 318.116 214.58Z" fill="#D2DEEF" fill-rule="evenodd"/><path d="M250.641 214.58 318.116 214.58 318.116 243.38 250.641 243.38Z" fill="#EAEFF7" fill-rule="evenodd"/><path d="M318.116 214.58 387.594 214.58 387.594 243.38 318.116 243.38Z" fill="#EAEFF7" fill-rule="evenodd"/><path d="M250.641 243.38 318.116 243.38 318.116 272.18 250.641 272.18Z" fill="#D2DEEF" fill-rule="evenodd"/><path d="M318.116 243.38 387.594 243.38 387.594 272.18 318.116 272.18Z" fill="#D2DEEF" fill-rule="evenodd"/><path d="M250.641 272.18 318.116 272.18 318.116 300.98 250.641 300.98Z" fill="#EAEFF7" fill-rule="evenodd"/><path d="M318.116 272.18 387.594 272.18 387.594 300.98 318.116 300.98Z" fill="#EAEFF7" fill-rule="evenodd"/><path d="M250.641 300.98 318.116 300.98 318.116 329.78 250.641 329.78Z" fill="#D2DEEF" fill-rule="evenodd"/><path d="M318.116 300.98 387.594 300.98 387.594 329.78 318.116 329.78Z" fill="#D2DEEF" fill-rule="evenodd"/><path d="M250.641 329.78 318.116 329.78 318.116 358.58 250.641 358.58Z" fill="#EAEFF7" fill-rule="evenodd"/><path d="M318.116 329.78 387.594 329.78 387.594 358.58 318.116 358.58Z" fill="#EAEFF7" fill-rule="evenodd"/><path d="M318.116 156.313 318.116 359.246" stroke="#FFFFFF" stroke-width="1.33333" stroke-linejoin="round" stroke-miterlimit="10" fill="none" fill-rule="evenodd"/><path d="M249.975 185.78 388.26 185.78" stroke="#FFFFFF" stroke-width="4" stroke-linejoin="round" stroke-miterlimit="10" fill="none" fill-rule="evenodd"/><path d="M249.975 214.58 388.26 214.58" stroke="#FFFFFF" stroke-width="1.33333" stroke-linejoin="round" stroke-miterlimit="10" fill="none" fill-rule="evenodd"/><path d="M249.975 243.38 388.26 243.38" stroke="#FFFFFF" stroke-width="1.33333" stroke-linejoin="round" stroke-miterlimit="10" fill="none" fill-rule="evenodd"/><path d="M249.975 272.18 388.26 272.18" stroke="#FFFFFF" stroke-width="1.33333" stroke-linejoin="round" stroke-miterlimit="10" fill="none" fill-rule="evenodd"/><path d="M249.975 300.98 388.26 300.98" stroke="#FFFFFF" stroke-width="1.33333" stroke-linejoin="round" stroke-miterlimit="10" fill="none" fill-rule="evenodd"/><path d="M249.975 329.78 388.26 329.78" stroke="#FFFFFF" stroke-width="1.33333" stroke-linejoin="round" stroke-miterlimit="10" fill="none" fill-rule="evenodd"/><path d="M250.641 156.313 250.641 359.246" stroke="#FFFFFF" stroke-width="1.33333" stroke-linejoin="round" stroke-miterlimit="10" fill="none" fill-rule="evenodd"/><path d="M387.594 156.313 387.594 359.246" stroke="#FFFFFF" stroke-width="1.33333" stroke-linejoin="round" stroke-miterlimit="10" fill="none" fill-rule="evenodd"/><path d="M249.975 156.98 388.26 156.98" stroke="#FFFFFF" stroke-width="1.33333" stroke-linejoin="round" stroke-miterlimit="10" fill="none" fill-rule="evenodd"/><path d="M249.975 358.58 388.26 358.58" stroke="#FFFFFF" stroke-width="1.33333" stroke-linejoin="round" stroke-miterlimit="10" fill="none" fill-rule="evenodd"/><text fill="#FFFFFF" font-family="Times New Roman,Times New Roman_MSFontService,sans-serif" font-weight="700" font-size="24" transform="translate(271.045 180)">F0<tspan font-size="24" x="68.4762" y="0">ID</tspan><tspan fill="#000000" font-weight="400" font-size="24" x="70.2561" y="29">11</tspan><tspan fill="#000000" font-family="Cambria Math,Cambria Math_MSFontService,sans-serif" font-weight="400" font-size="24" x="-7.58005" y="58">𝒇</tspan><tspan fill="#000000" font-family="Cambria Math,Cambria Math_MSFontService,sans-serif" font-weight="400" font-size="18" x="5.91995" y="62">𝒂𝟎</tspan><tspan fill="#000000" font-size="24" x="75.8095" y="58">2</tspan><tspan fill="#000000" font-family="Cambria Math,Cambria Math_MSFontService,sans-serif" font-weight="400" font-size="24" x="-7.41339" y="86">𝒇</tspan><tspan fill="#000000" font-family="Cambria Math,Cambria Math_MSFontService,sans-serif" font-weight="400" font-size="18" x="6.08661" y="91">𝒅𝟎</tspan><tspan fill="#000000" font-size="24" x="75.8095" y="86">3</tspan><tspan fill="#000000" font-family="Cambria Math,Cambria Math_MSFontService,sans-serif" font-weight="400" font-size="24" x="-6.16336" y="115">𝒇</tspan><tspan fill="#000000" font-family="Cambria Math,Cambria Math_MSFontService,sans-serif" font-weight="400" font-size="18" x="7.33664" y="120">𝒄𝟎</tspan><tspan fill="#000000" font-size="24" x="75.8095" y="115">4</tspan><tspan fill="#000000" font-family="Cambria Math,Cambria Math_MSFontService,sans-serif" font-weight="400" font-size="24" x="-7.49667" y="144">𝒇</tspan><tspan fill="#000000" font-family="Cambria Math,Cambria Math_MSFontService,sans-serif" font-weight="400" font-size="18" x="6.00333" y="149">𝒃𝟎</tspan><tspan fill="#000000" font-size="24" x="75.8095" y="144">9</tspan><tspan fill="#000000" font-weight="400" font-size="24" x="75.8095" y="173">6</tspan></text><path d="M903.35 157.398 972.86 157.398 972.86 186.198 903.35 186.198Z" fill="#FFC000" fill-rule="evenodd"/><path d="M972.86 157.398 1042.37 157.398 1042.37 186.198 972.86 186.198Z" fill="#FFC000" fill-rule="evenodd"/><path d="M1042.37 157.398 1111.88 157.398 1111.88 186.198 1042.37 186.198Z" fill="#FFC000" fill-rule="evenodd"/><path d="M903.35 186.198 972.86 186.198 972.86 214.998 903.35 214.998Z" fill="#FFE8CB" fill-rule="evenodd"/><path d="M972.86 186.198 1042.37 186.198 1042.37 214.998 972.86 214.998Z" fill="#FFE8CB" fill-rule="evenodd"/><path d="M1042.37 186.198 1111.88 186.198 1111.88 214.998 1042.37 214.998Z" fill="#FFE8CB" fill-rule="evenodd"/><path d="M903.35 214.998 972.86 214.998 972.86 243.798 903.35 243.798Z" fill="#FFF4E7" fill-rule="evenodd"/><path d="M972.86 214.998 1042.37 214.998 1042.37 243.798 972.86 243.798Z" fill="#FFF4E7" fill-rule="evenodd"/><path d="M1042.37 214.998 1111.88 214.998 1111.88 243.798 1042.37 243.798Z" fill="#FFF4E7" fill-rule="evenodd"/><path d="M903.35 243.798 972.86 243.798 972.86 272.598 903.35 272.598Z" fill="#FFE8CB" fill-rule="evenodd"/><path d="M972.86 243.798 1042.37 243.798 1042.37 272.598 972.86 272.598Z" fill="#FFE8CB" fill-rule="evenodd"/><path d="M1042.37 243.798 1111.88 243.798 1111.88 272.598 1042.37 272.598Z" fill="#FFE8CB" fill-rule="evenodd"/><path d="M903.35 272.598 972.86 272.598 972.86 301.398 903.35 301.398Z" fill="#FFF4E7" fill-rule="evenodd"/><path d="M972.86 272.598 1042.37 272.598 1042.37 301.398 972.86 301.398Z" fill="#FFF4E7" fill-rule="evenodd"/><path d="M1042.37 272.598 1111.88 272.598 1111.88 301.398 1042.37 301.398Z" fill="#FFF4E7" fill-rule="evenodd"/><path d="M903.35 301.398 972.86 301.398 972.86 330.198 903.35 330.198Z" fill="#FFE8CB" fill-rule="evenodd"/><path d="M972.86 301.398 1042.37 301.398 1042.37 330.198 972.86 330.198Z" fill="#FFE8CB" fill-rule="evenodd"/><path d="M1042.37 301.398 1111.88 301.398 1111.88 330.198 1042.37 330.198Z" fill="#FFE8CB" fill-rule="evenodd"/><path d="M903.35 330.198 972.86 330.198 972.86 358.998 903.35 358.998Z" fill="#FFF4E7" fill-rule="evenodd"/><path d="M972.86 330.198 1042.37 330.198 1042.37 358.998 972.86 358.998Z" fill="#FFF4E7" fill-rule="evenodd"/><path d="M1042.37 330.198 1111.88 330.198 1111.88 358.998 1042.37 358.998Z" fill="#FFF4E7" fill-rule="evenodd"/><path d="M972.86 156.732 972.86 359.665" stroke="#FFFFFF" stroke-width="1.33333" stroke-linejoin="round" stroke-miterlimit="10" fill="none" fill-rule="evenodd"/><path d="M1042.37 156.732 1042.37 359.665" stroke="#FFFFFF" stroke-width="1.33333" stroke-linejoin="round" stroke-miterlimit="10" fill="none" fill-rule="evenodd"/><path d="M902.684 186.198 1042.37 186.198" stroke="#FFFFFF" stroke-width="4" stroke-linejoin="round" stroke-miterlimit="10" fill="none" fill-rule="evenodd"/><path d="M1042.37 186.198 1112.55 186.198" stroke="#FFFFFF" stroke-width="4" stroke-linejoin="round" stroke-miterlimit="10" fill="none" fill-rule="evenodd"/><path d="M902.684 214.998 1042.37 214.998" stroke="#FFFFFF" stroke-width="1.33333" stroke-linejoin="round" stroke-miterlimit="10" fill="none" fill-rule="evenodd"/><path d="M1042.37 214.998 1112.55 214.998" stroke="#FFFFFF" stroke-width="1.33333" stroke-linejoin="round" stroke-miterlimit="10" fill="none" fill-rule="evenodd"/><path d="M902.684 243.798 1042.37 243.798" stroke="#FFFFFF" stroke-width="1.33333" stroke-linejoin="round" stroke-miterlimit="10" fill="none" fill-rule="evenodd"/><path d="M1042.37 243.798 1112.55 243.798" stroke="#FFFFFF" stroke-width="1.33333" stroke-linejoin="round" stroke-miterlimit="10" fill="none" fill-rule="evenodd"/><path d="M902.684 272.598 1042.37 272.598" stroke="#FFFFFF" stroke-width="1.33333" stroke-linejoin="round" stroke-miterlimit="10" fill="none" fill-rule="evenodd"/><path d="M1042.37 272.598 1112.55 272.598" stroke="#FFFFFF" stroke-width="1.33333" stroke-linejoin="round" stroke-miterlimit="10" fill="none" fill-rule="evenodd"/><path d="M902.684 301.398 1042.37 301.398" stroke="#FFFFFF" stroke-width="1.33333" stroke-linejoin="round" stroke-miterlimit="10" fill="none" fill-rule="evenodd"/><path d="M1042.37 301.398 1112.55 301.398" stroke="#FFFFFF" stroke-width="1.33333" stroke-linejoin="round" stroke-miterlimit="10" fill="none" fill-rule="evenodd"/><path d="M902.684 330.198 1042.37 330.198" stroke="#FFFFFF" stroke-width="1.33333" stroke-linejoin="round" stroke-miterlimit="10" fill="none" fill-rule="evenodd"/><path d="M1042.37 330.198 1112.55 330.198" stroke="#FFFFFF" stroke-width="1.33333" stroke-linejoin="round" stroke-miterlimit="10" fill="none" fill-rule="evenodd"/><path d="M903.35 156.732 903.35 359.665" stroke="#FFFFFF" stroke-width="1.33333" stroke-linejoin="round" stroke-miterlimit="10" fill="none" fill-rule="evenodd"/><path d="M1111.88 156.732 1111.88 359.665" stroke="#FFFFFF" stroke-width="1.33333" stroke-linejoin="round" stroke-miterlimit="10" fill="none" fill-rule="evenodd"/><path d="M902.684 157.398 1112.55 157.398" stroke="#FFFFFF" stroke-width="1.33333" stroke-linejoin="round" stroke-miterlimit="10" fill="none" fill-rule="evenodd"/><path d="M902.684 358.998 1112.55 358.998" stroke="#FFFFFF" stroke-width="1.33333" stroke-linejoin="round" stroke-miterlimit="10" fill="none" fill-rule="evenodd"/><text fill="#FFFFFF" font-family="Times New Roman,Times New Roman_MSFontService,sans-serif" font-weight="700" font-size="24" transform="translate(924.772 180)">ID<tspan font-size="24" x="69.5101" y="0">F1</tspan></text><g clip-path="url(#clip1)"><text fill="#FFFFFF" font-family="Times New Roman,Times New Roman_MSFontService,sans-serif" font-weight="700" font-size="24" transform="translate(1047.79 180)">Label</text></g><text font-family="Times New Roman,Times New Roman_MSFontService,sans-serif" font-weight="700" font-size="24" transform="translate(932.105 209)">2<tspan font-family="Cambria Math,Cambria Math_MSFontService,sans-serif" font-weight="400" font-size="24" x="54.5967" y="0">𝒇</tspan><tspan font-family="Cambria Math,Cambria Math_MSFontService,sans-serif" font-weight="400" font-size="18" x="68.0967" y="5">𝒂𝟏</tspan><tspan font-family="Cambria Math,Cambria Math_MSFontService,sans-serif" font-weight="400" font-size="24" x="124.107" y="0">𝒇</tspan><tspan font-family="Cambria Math,Cambria Math_MSFontService,sans-serif" font-weight="400" font-size="18" x="137.607" y="5">𝒂</tspan><tspan font-family="Cambria Math,Cambria Math_MSFontService,sans-serif" font-weight="400" font-size="18" x="148.44" y="5">𝟐</tspan><tspan font-weight="400" font-size="24" x="0" y="29">8</tspan><tspan font-size="24" x="0" y="58">9</tspan><tspan font-family="Cambria Math,Cambria Math_MSFontService,sans-serif" font-weight="400" font-size="24" x="54.6801" y="58">𝒇</tspan><tspan font-family="Cambria Math,Cambria Math_MSFontService,sans-serif" font-weight="400" font-size="18" x="68.1801" y="63">𝒃𝟏</tspan><tspan font-family="Cambria Math,Cambria Math_MSFontService,sans-serif" font-weight="400" font-size="24" x="124.19" y="58">𝒇</tspan><tspan font-family="Cambria Math,Cambria Math_MSFontService,sans-serif" font-weight="400" font-size="18" x="137.69" y="63">𝒃</tspan><tspan font-family="Cambria Math,Cambria Math_MSFontService,sans-serif" font-weight="400" font-size="18" x="148.357" y="63">𝟐</tspan><tspan font-weight="400" font-size="24" x="-6" y="87">13</tspan><tspan font-size="24" x="0" y="115">4</tspan><tspan font-family="Cambria Math,Cambria Math_MSFontService,sans-serif" font-weight="400" font-size="24" x="55.5967" y="115">𝒇</tspan><tspan font-family="Cambria Math,Cambria Math_MSFontService,sans-serif" font-weight="400" font-size="18" x="69.0967" y="120">𝒄</tspan><tspan font-family="Cambria Math,Cambria Math_MSFontService,sans-serif" font-weight="400" font-size="18" x="77.9301" y="120">𝟏</tspan><tspan font-family="Cambria Math,Cambria Math_MSFontService,sans-serif" font-weight="400" font-size="24" x="125.107" y="115">𝒇</tspan><tspan font-family="Cambria Math,Cambria Math_MSFontService,sans-serif" font-weight="400" font-size="18" x="138.607" y="120">𝒄</tspan><tspan font-family="Cambria Math,Cambria Math_MSFontService,sans-serif" font-weight="400" font-size="18" x="147.44" y="120">𝟐</tspan><tspan font-size="24" x="0" y="144">3</tspan><tspan font-family="Cambria Math,Cambria Math_MSFontService,sans-serif" font-weight="400" font-size="24" x="54.3467" y="144">𝒇</tspan><tspan font-family="Cambria Math,Cambria Math_MSFontService,sans-serif" font-weight="400" font-size="18" x="67.8468" y="149">𝒅</tspan><tspan font-family="Cambria Math,Cambria Math_MSFontService,sans-serif" font-weight="400" font-size="18" x="79.1801" y="149">𝟏</tspan><tspan font-family="Cambria Math,Cambria Math_MSFontService,sans-serif" font-weight="400" font-size="24" x="123.857" y="144">𝒇</tspan><tspan font-family="Cambria Math,Cambria Math_MSFontService,sans-serif" font-weight="400" font-size="18" x="137.357" y="149">𝒅</tspan><tspan font-family="Cambria Math,Cambria Math_MSFontService,sans-serif" font-weight="400" font-size="18" x="148.69" y="149">𝟐</tspan></text><path d="M479.515 360 567.024 360 567.024 388.8 479.515 388.8Z" fill="#E7E6E6" fill-rule="evenodd"/><path d="M567.024 360 654.532 360 654.532 388.8 567.024 388.8Z" fill="#ED7D31" fill-rule="evenodd"/><path d="M654.532 360 742.041 360 742.041 388.8 654.532 388.8Z" fill="#ED7D31" fill-rule="evenodd"/><path d="M742.041 360 829.55 360 829.55 388.8 742.041 388.8Z" fill="#ED7D31" fill-rule="evenodd"/><path d="M479.515 388.8 567.024 388.8 567.024 417.6 479.515 417.6Z" fill="#E7E6E6" fill-rule="evenodd"/><path d="M567.024 388.8 654.532 388.8 654.532 417.6 567.024 417.6Z" fill="#F8D7CD" fill-rule="evenodd"/><path d="M654.532 388.8 742.041 388.8 742.041 417.6 654.532 417.6Z" fill="#F8D7CD" fill-rule="evenodd"/><path d="M742.041 388.8 829.55 388.8 829.55 417.6 742.041 417.6Z" fill="#F8D7CD" fill-rule="evenodd"/><path d="M479.515 417.6 567.024 417.6 567.024 446.4 479.515 446.4Z" fill="#E7E6E6" fill-rule="evenodd"/><path d="M567.024 417.6 654.532 417.6 654.532 446.4 567.024 446.4Z" fill="#FCECE8" fill-rule="evenodd"/><path d="M654.532 417.6 742.041 417.6 742.041 446.4 654.532 446.4Z" fill="#FCECE8" fill-rule="evenodd"/><path d="M742.041 417.6 829.55 417.6 829.55 446.4 742.041 446.4Z" fill="#FCECE8" fill-rule="evenodd"/><path d="M479.515 446.4 567.024 446.4 567.024 475.2 479.515 475.2Z" fill="#E7E6E6" fill-rule="evenodd"/><path d="M567.024 446.4 654.532 446.4 654.532 475.2 567.024 475.2Z" fill="#F8D7CD" fill-rule="evenodd"/><path d="M654.532 446.4 742.041 446.4 742.041 475.2 654.532 475.2Z" fill="#F8D7CD" fill-rule="evenodd"/><path d="M742.041 446.4 829.55 446.4 829.55 475.2 742.041 475.2Z" fill="#F8D7CD" fill-rule="evenodd"/><path d="M479.515 475.2 567.024 475.2 567.024 504 479.515 504Z" fill="#E7E6E6" fill-rule="evenodd"/><path d="M567.024 475.2 654.532 475.2 654.532 504 567.024 504Z" fill="#FCECE8" fill-rule="evenodd"/><path d="M654.532 475.2 742.041 475.2 742.041 504 654.532 504Z" fill="#FCECE8" fill-rule="evenodd"/><path d="M742.041 475.2 829.55 475.2 829.55 504 742.041 504Z" fill="#FCECE8" fill-rule="evenodd"/><path d="M567.024 359.333 567.024 504.667" stroke="#FFFFFF" stroke-width="1.33333" stroke-linejoin="round" stroke-miterlimit="10" fill="none" fill-rule="evenodd"/><path d="M654.532 359.333 654.532 504.667" stroke="#FFFFFF" stroke-width="1.33333" stroke-linejoin="round" stroke-miterlimit="10" fill="none" fill-rule="evenodd"/><path d="M742.041 359.333 742.041 504.667" stroke="#FFFFFF" stroke-width="1.33333" stroke-linejoin="round" stroke-miterlimit="10" fill="none" fill-rule="evenodd"/><path d="M478.848 388.8 742.041 388.8" stroke="#FFFFFF" stroke-width="4" stroke-linejoin="round" stroke-miterlimit="10" fill="none" fill-rule="evenodd"/><path d="M742.041 388.8 830.217 388.8" stroke="#FFFFFF" stroke-width="4" stroke-linejoin="round" stroke-miterlimit="10" fill="none" fill-rule="evenodd"/><path d="M478.848 417.6 742.041 417.6" stroke="#FFFFFF" stroke-width="1.33333" stroke-linejoin="round" stroke-miterlimit="10" fill="none" fill-rule="evenodd"/><path d="M742.041 417.6 830.217 417.6" stroke="#FFFFFF" stroke-width="1.33333" stroke-linejoin="round" stroke-miterlimit="10" fill="none" fill-rule="evenodd"/><path d="M478.848 446.4 742.041 446.4" stroke="#FFFFFF" stroke-width="1.33333" stroke-linejoin="round" stroke-miterlimit="10" fill="none" fill-rule="evenodd"/><path d="M742.041 446.4 830.217 446.4" stroke="#FFFFFF" stroke-width="1.33333" stroke-linejoin="round" stroke-miterlimit="10" fill="none" fill-rule="evenodd"/><path d="M478.848 475.2 742.041 475.2" stroke="#FFFFFF" stroke-width="1.33333" stroke-linejoin="round" stroke-miterlimit="10" fill="none" fill-rule="evenodd"/><path d="M742.041 475.2 830.217 475.2" stroke="#FFFFFF" stroke-width="1.33333" stroke-linejoin="round" stroke-miterlimit="10" fill="none" fill-rule="evenodd"/><path d="M479.515 359.333 479.515 504.667" stroke="#FFFFFF" stroke-width="1.33333" stroke-linejoin="round" stroke-miterlimit="10" fill="none" fill-rule="evenodd"/><path d="M829.55 359.333 829.55 504.667" stroke="#FFFFFF" stroke-width="1.33333" stroke-linejoin="round" stroke-miterlimit="10" fill="none" fill-rule="evenodd"/><path d="M478.848 360 830.217 360" stroke="#FFFFFF" stroke-width="1.33333" stroke-linejoin="round" stroke-miterlimit="10" fill="none" fill-rule="evenodd"/><path d="M478.848 504 830.217 504" stroke="#FFFFFF" stroke-width="1.33333" stroke-linejoin="round" stroke-miterlimit="10" fill="none" fill-rule="evenodd"/><text font-family="Times New Roman,Times New Roman_MSFontService,sans-serif" font-weight="700" font-size="24" transform="translate(509.936 383)">ID<tspan fill="#FFFFFF" font-size="24" x="87.5088" y="0">F0</tspan><tspan fill="#FFFFFF" font-size="24" x="175.018" y="0">F1</tspan></text><g clip-path="url(#clip2)"><text fill="#FFFFFF" font-family="Times New Roman,Times New Roman_MSFontService,sans-serif" font-weight="700" font-size="24" transform="translate(756.462 383)">Label</text></g><text font-family="Times New Roman,Times New Roman_MSFontService,sans-serif" font-weight="700" font-size="24" transform="translate(517.269 412)">2<tspan font-family="Cambria Math,Cambria Math_MSFontService,sans-serif" font-weight="400" font-size="24" x="72.5954" y="0">𝒇</tspan><tspan font-family="Cambria Math,Cambria Math_MSFontService,sans-serif" font-weight="400" font-size="18" x="86.0954" y="5">𝒂𝟎</tspan><tspan font-family="Cambria Math,Cambria Math_MSFontService,sans-serif" font-weight="400" font-size="24" x="160.104" y="0">𝒇</tspan><tspan font-family="Cambria Math,Cambria Math_MSFontService,sans-serif" font-weight="400" font-size="18" x="173.604" y="5">𝒂𝟏</tspan><tspan font-family="Cambria Math,Cambria Math_MSFontService,sans-serif" font-weight="400" font-size="24" x="247.613" y="0">𝒇</tspan><tspan font-family="Cambria Math,Cambria Math_MSFontService,sans-serif" font-weight="400" font-size="18" x="261.113" y="5">𝒂</tspan><tspan font-family="Cambria Math,Cambria Math_MSFontService,sans-serif" font-weight="400" font-size="18" x="271.946" y="5">𝟐</tspan><tspan font-size="24" x="0" y="29">9</tspan><tspan font-family="Cambria Math,Cambria Math_MSFontService,sans-serif" font-weight="400" font-size="24" x="72.6788" y="29">𝒇</tspan><tspan font-family="Cambria Math,Cambria Math_MSFontService,sans-serif" font-weight="400" font-size="18" x="86.1788" y="34">𝐛𝟎</tspan><tspan font-family="Cambria Math,Cambria Math_MSFontService,sans-serif" font-weight="400" font-size="24" x="160.188" y="29">𝒇</tspan><tspan font-family="Cambria Math,Cambria Math_MSFontService,sans-serif" font-weight="400" font-size="18" x="173.688" y="34">𝐛𝟏</tspan><tspan font-family="Cambria Math,Cambria Math_MSFontService,sans-serif" font-weight="400" font-size="24" x="247.696" y="29">𝒇</tspan><tspan font-family="Cambria Math,Cambria Math_MSFontService,sans-serif" font-weight="400" font-size="18" x="261.196" y="34">𝐛</tspan><tspan font-family="Cambria Math,Cambria Math_MSFontService,sans-serif" font-weight="400" font-size="18" x="271.863" y="34">𝟐</tspan><tspan font-size="24" x="0" y="57">3</tspan><tspan font-family="Cambria Math,Cambria Math_MSFontService,sans-serif" font-weight="400" font-size="24" x="73.5954" y="57">𝒇</tspan><tspan font-family="Cambria Math,Cambria Math_MSFontService,sans-serif" font-weight="400" font-size="18" x="87.0954" y="62">𝒄𝟎</tspan><tspan font-family="Cambria Math,Cambria Math_MSFontService,sans-serif" font-weight="400" font-size="24" x="161.104" y="57">𝒇</tspan><tspan font-family="Cambria Math,Cambria Math_MSFontService,sans-serif" font-weight="400" font-size="18" x="174.604" y="62">𝒄𝟏</tspan><tspan font-family="Cambria Math,Cambria Math_MSFontService,sans-serif" font-weight="400" font-size="24" x="248.613" y="57">𝒇</tspan><tspan font-family="Cambria Math,Cambria Math_MSFontService,sans-serif" font-weight="400" font-size="18" x="262.113" y="62">𝒄</tspan><tspan font-family="Cambria Math,Cambria Math_MSFontService,sans-serif" font-weight="400" font-size="18" x="270.946" y="62">𝟐</tspan><tspan font-size="24" x="0" y="86">4</tspan><tspan font-family="Cambria Math,Cambria Math_MSFontService,sans-serif" font-weight="400" font-size="24" x="72.3454" y="86">𝒇</tspan><tspan font-family="Cambria Math,Cambria Math_MSFontService,sans-serif" font-weight="400" font-size="18" x="85.8454" y="91">𝒅𝟎</tspan><tspan font-family="Cambria Math,Cambria Math_MSFontService,sans-serif" font-weight="400" font-size="24" x="159.854" y="86">𝒇</tspan><tspan font-family="Cambria Math,Cambria Math_MSFontService,sans-serif" font-weight="400" font-size="18" x="173.354" y="91">𝒅𝟏</tspan><tspan font-family="Cambria Math,Cambria Math_MSFontService,sans-serif" font-weight="400" font-size="24" x="247.363" y="86">𝒇</tspan><tspan font-family="Cambria Math,Cambria Math_MSFontService,sans-serif" font-weight="400" font-size="18" x="260.863" y="91">𝒅</tspan><tspan font-family="Cambria Math,Cambria Math_MSFontService,sans-serif" font-weight="400" font-size="18" x="272.196" y="91">𝟐</tspan><tspan font-family="Cambria Math,Cambria Math_MSFontService,sans-serif" font-weight="400" font-size="24" x="343.408" y="-166">𝑃</tspan><tspan font-family="Cambria Math,Cambria Math_MSFontService,sans-serif" font-weight="400" font-size="18" x="355.108" y="-161">1</tspan></text><g clip-path="url(#clip3)"><g clip-path="url(#clip4)"><g clip-path="url(#clip5)"><path d="M846.62 234.851C849.383 233.02 851.214 229.892 851.214 226.339 851.214 220.705 846.633 216.125 841 216.125 835.367 216.125 830.786 220.705 830.786 226.339 830.786 229.892 832.617 233.025 835.38 234.851 828.273 237.046 823.125 243.268 823.125 250.599 823.125 251.304 823.696 251.875 824.401 251.875 825.106 251.875 825.677 251.304 825.677 250.599 825.677 242.856 832.548 236.552 841 236.552 849.448 236.552 856.323 242.852 856.323 250.599 856.323 251.304 856.894 251.875 857.599 251.875 858.304 251.875 858.875 251.304 858.875 250.599 858.875 243.268 853.727 237.046 846.62 234.851ZM833.339 226.339C833.339 222.115 836.776 218.677 841 218.677 845.224 218.677 848.661 222.115 848.661 226.339 848.661 230.562 845.224 234 841 234 836.776 234 833.339 230.562 833.339 226.339Z" fill="#0D0D0D"/></g></g></g><path d="M661 317.5 661 353.343 658 353.343 658 317.5ZM664 351.843 659.5 360.843 655 351.843Z"/><path d="M904.5 433C904.5 429.41 907.41 426.5 911 426.5 914.59 426.5 917.5 429.41 917.5 433 917.5 436.59 914.59 439.5 911 439.5 907.41 439.5 904.5 436.59 904.5 433Z" stroke="#000000" stroke-width="1.33333" stroke-miterlimit="8" fill="#FFFFFF" fill-rule="evenodd"/><path d="M903.5 456C903.5 452.41 906.41 449.5 910 449.5 913.59 449.5 916.5 452.41 916.5 456 916.5 459.59 913.59 462.5 910 462.5 906.41 462.5 903.5 459.59 903.5 456Z" stroke="#000000" stroke-width="1.33333" stroke-miterlimit="8" fill="#FFFFFF" fill-rule="evenodd"/><path d="M932.5 410C932.5 406.41 935.41 403.5 939 403.5 942.59 403.5 945.5 406.41 945.5 410 945.5 413.59 942.59 416.5 939 416.5 935.41 416.5 932.5 413.59 932.5 410Z" stroke="#000000" stroke-width="1.33333" stroke-miterlimit="8" fill="#FFFFFF" fill-rule="evenodd"/><path d="M932.5 433C932.5 429.41 935.41 426.5 939 426.5 942.59 426.5 945.5 429.41 945.5 433 945.5 436.59 942.59 439.5 939 439.5 935.41 439.5 932.5 436.59 932.5 433Z" stroke="#000000" stroke-width="1.33333" stroke-miterlimit="8" fill="#FFFFFF" fill-rule="evenodd"/><path d="M932.5 455C932.5 451.41 935.41 448.5 939 448.5 942.59 448.5 945.5 451.41 945.5 455 945.5 458.59 942.59 461.5 939 461.5 935.41 461.5 932.5 458.59 932.5 455Z" stroke="#000000" stroke-width="1.33333" stroke-miterlimit="8" fill="#FFFFFF" fill-rule="evenodd"/><path d="M932.5 476C932.5 472.41 935.41 469.5 939 469.5 942.59 469.5 945.5 472.41 945.5 476 945.5 479.59 942.59 482.5 939 482.5 935.41 482.5 932.5 479.59 932.5 476Z" stroke="#000000" stroke-width="1.33333" stroke-miterlimit="8" fill="#FFFFFF" fill-rule="evenodd"/><path d="M962.5 422C962.5 418.41 965.41 415.5 969 415.5 972.59 415.5 975.5 418.41 975.5 422 975.5 425.59 972.59 428.5 969 428.5 965.41 428.5 962.5 425.59 962.5 422Z" stroke="#000000" stroke-width="1.33333" stroke-miterlimit="8" fill="#FFFFFF" fill-rule="evenodd"/><path d="M961.5 445C961.5 441.41 964.41 438.5 968 438.5 971.59 438.5 974.5 441.41 974.5 445 974.5 448.59 971.59 451.5 968 451.5 964.41 451.5 961.5 448.59 961.5 445Z" stroke="#000000" stroke-width="1.33333" stroke-miterlimit="8" fill="#FFFFFF" fill-rule="evenodd"/><path d="M961.5 467C961.5 463.41 964.41 460.5 968 460.5 971.59 460.5 974.5 463.41 974.5 467 974.5 470.59 971.59 473.5 968 473.5 964.41 473.5 961.5 470.59 961.5 467Z" stroke="#000000" stroke-width="1.33333" stroke-miterlimit="8" fill="#FFFFFF" fill-rule="evenodd"/><path d="M986.5 433C986.5 429.41 989.41 426.5 993 426.5 996.59 426.5 999.5 429.41 999.5 433 999.5 436.59 996.59 439.5 993 439.5 989.41 439.5 986.5 436.59 986.5 433Z" stroke="#000000" stroke-width="1.33333" stroke-miterlimit="8" fill="#FFFFFF" fill-rule="evenodd"/><path d="M986.5 456C986.5 452.41 989.41 449.5 993 449.5 996.59 449.5 999.5 452.41 999.5 456 999.5 459.59 996.59 462.5 993 462.5 989.41 462.5 986.5 459.59 986.5 456Z" stroke="#000000" stroke-width="1.33333" stroke-miterlimit="8" fill="#FFFFFF" fill-rule="evenodd"/><path d="M0.826419-0.563056 12.3889 16.4077 10.7361 17.5338-0.826419 0.563056ZM14.1174 13.6166 15.3162 22.4802 7.5061 18.1211Z" transform="matrix(1 0 0 -1 917 432.48)"/><path d="M917 431 925.65 431 925.65 433 917 433ZM924.316 428 932.316 432 924.316 436Z"/><path d="M917.826 431.437 929.389 448.408 927.736 449.534 916.174 432.563ZM931.117 445.617 932.316 454.48 924.506 450.121Z"/><path d="M917.942 431.664 931.021 468.377 929.137 469.048 916.058 432.336ZM933.4 466.114 932.316 474.993 925.863 468.799Z"/><path d="M0.943046-0.332662 14.844 39.0745 12.9579 39.7399-0.943046 0.332662ZM17.2296 36.8192 16.1187 45.6942 9.68526 39.4804Z" transform="matrix(1 0 0 -1 916 455.694)"/><path d="M0.821404-0.570346 13.1378 17.1676 11.495 18.3083-0.821404 0.570346ZM14.8416 14.3613 16.1187 23.214 8.27035 18.9241Z" transform="matrix(1 0 0 -1 916 455.214)"/><path d="M0.0454747-0.998965 9.50444-0.568377 9.4135 1.42955-0.0454747 0.998965ZM8.30891-3.62591 16.1187 0.733753 7.94512 4.36582Z" transform="matrix(1 0 0 -1 916 455.734)"/><path d="M916.775 454.368 928.682 468.979 927.132 470.242 915.225 455.632ZM930.166 466.05 932.119 474.779 923.964 471.104Z"/><path d="M945.578 409.184 956.425 416.87 955.268 418.502 944.422 410.816ZM957.071 413.651 961.286 421.54 952.446 420.179Z"/><path d="M945.962 409.726 960.251 459.815 958.328 460.364 944.038 410.274ZM962.771 457.71 961.119 466.501 955.078 459.905Z"/><path d="M0.557612-0.830101 11.3096 6.39243 10.1944 8.05263-0.557612 0.830101ZM11.8756 3.15864 16.286 10.9399 7.41472 9.79945Z" transform="matrix(1 0 0 -1 945 431.94)"/><path d="M945.605 431.204 956.414 439.412 955.205 441.005 944.395 432.796ZM957.167 436.217 961.119 444.241 952.328 442.588Z"/><path d="M945.904 431.572 959.168 459.568 957.361 460.424 944.096 432.428ZM961.308 457.078 961.119 466.02 954.079 460.504Z"/><path d="M0.898943-0.438065 14.2645 26.989 12.4666 27.8652-0.898943 0.438065ZM16.3772 24.4762 16.286 33.4201 9.18569 27.9808Z" transform="matrix(1 0 0 -1 945 454.42)"/><path d="M0.536208-0.844086 11.0277 5.82067 9.95529 7.50884-0.536208 0.844086ZM11.5109 2.57347 16.1187 10.2395 7.22122 9.32615Z" transform="matrix(1 0 0 -1 945 455.239)"/><path d="M945.582 454.187 956.28 461.846 955.116 463.472 944.418 455.813ZM956.943 458.631 961.119 466.54 952.285 465.136Z"/><path d="M975.7 420.286 982.106 426.561 980.707 427.99 974.3 421.714ZM983.253 423.484 986.169 431.94 977.655 429.2Z"/><path d="M975.95 420.689 985.048 448.507 983.147 449.128 974.05 421.311ZM987.485 446.307 986.169 455.154 979.881 448.794Z"/><path d="M0.734682-0.678412 7.51514 6.66444 6.04577 8.02127-0.734682 0.678412ZM8.81464 3.64963 11.3032 12.2407 2.93718 9.07693Z" transform="matrix(1 0 0 -1 974 444.241)"/><path d="M974.695 444.281 981.208 450.585 979.817 452.022 973.305 445.719ZM982.337 447.502 985.303 455.94 976.773 453.25Z"/><path d="M0.948992-0.3153 10.1502 27.3786 8.25221 28.0092-0.948992 0.3153ZM12.5768 25.1673 11.3032 34.0205 4.98483 27.6897Z" transform="matrix(1 0 0 -1 974 466.02)"/><path d="M0.691047-0.72281 7.17552 5.47672 5.79342 6.92234-0.691047 0.72281ZM8.28491 2.38689 11.3032 10.8065 2.75654 8.16937Z" transform="matrix(1 0 0 -1 974 465.807)"/><path d="M0.486356-0.873761 10.78 4.85594 9.80731 6.60346-0.486356 0.873761ZM11.0741 1.58618 16.1187 8.97207 7.18323 8.57627Z" transform="matrix(1 0 0 -1 945 474.972)"/><path d="M0.885498-0.464643 13.9066 24.3505 12.1356 25.2797-0.885498 0.464643ZM15.9436 21.7759 16.1187 30.7184 8.8596 25.493Z" transform="matrix(1 0 0 -1 945 475.718)"/><path d="M0.957305-0.289078 15.3161 47.2613 13.4015 47.8395-0.957305 0.289078ZM17.8026 45.1176 16.286 53.9324 10.1441 47.4303Z" transform="matrix(1 0 0 -1 945 474.932)"/><path d="M830.505 431 897.608 431.225 897.598 434.225 830.495 434ZM896.118 428.22 905.103 432.75 896.088 437.22Z"/><g clip-path="url(#clip6)"><g clip-path="url(#clip7)"><g clip-path="url(#clip8)"><path d="M446.62 234.851C449.383 233.02 451.214 229.892 451.214 226.339 451.214 220.705 446.633 216.125 441 216.125 435.367 216.125 430.786 220.705 430.786 226.339 430.786 229.892 432.617 233.025 435.38 234.851 428.273 237.046 423.125 243.268 423.125 250.599 423.125 251.304 423.696 251.875 424.401 251.875 425.106 251.875 425.677 251.304 425.677 250.599 425.677 242.856 432.548 236.552 441 236.552 449.448 236.552 456.323 242.852 456.323 250.599 456.323 251.304 456.894 251.875 457.599 251.875 458.304 251.875 458.875 251.304 458.875 250.599 458.875 243.268 453.727 237.046 446.62 234.851ZM433.339 226.339C433.339 222.115 436.776 218.677 441 218.677 445.224 218.677 448.661 222.115 448.661 226.339 448.661 230.562 445.224 234 441 234 436.776 234 433.339 230.562 433.339 226.339Z" fill="#0D0D0D"/></g></g></g><text font-family="Times New Roman,Times New Roman_MSFontService,sans-serif" font-weight="400" font-size="24" transform="translate(894.464 503)">Train model</text></g></svg>