<svg width="414" height="116" xmlns="http://www.w3.org/2000/svg" xmlns:xlink="http://www.w3.org/1999/xlink" overflow="hidden"><defs><clipPath id="clip0"><rect x="93" y="113" width="414" height="116"/></clipPath><clipPath id="clip1"><rect x="462" y="143" width="44" height="44"/></clipPath><clipPath id="clip2"><rect x="462" y="143" width="44" height="44"/></clipPath><clipPath id="clip3"><rect x="462" y="143" width="44" height="44"/></clipPath><clipPath id="clip4"><rect x="94" y="143" width="44" height="44"/></clipPath><clipPath id="clip5"><rect x="94" y="143" width="44" height="44"/></clipPath><clipPath id="clip6"><rect x="94" y="143" width="44" height="44"/></clipPath></defs><g clip-path="url(#clip0)" transform="translate(-93 -113)"><text font-family="Cambria Math,Cambria Math_MSFontService,sans-serif" font-weight="400" font-size="24" transform="translate(105.632 198)">𝑃<tspan font-size="18" x="12.2533" y="4">0</tspan></text><path d="M153.5 171C153.5 139.796 194.69 114.5 245.5 114.5 296.31 114.5 337.5 139.796 337.5 171 337.5 202.204 296.31 227.5 245.5 227.5 194.69 227.5 153.5 202.204 153.5 171Z" stroke="#41719C" stroke-width="1.33333" stroke-miterlimit="8" fill="#5B9BD5" fill-rule="evenodd" fill-opacity="0.501961"/><text font-family="Times New Roman,Times New Roman_MSFontService,sans-serif" font-weight="700" font-size="27" transform="translate(235.448 181)">X</text><path d="M268.5 171C268.5 139.796 307.675 114.5 356 114.5 404.325 114.5 443.5 139.796 443.5 171 443.5 202.204 404.325 227.5 356 227.5 307.675 227.5 268.5 202.204 268.5 171Z" stroke="#BC8C00" stroke-width="1.33333" stroke-miterlimit="8" fill="#FFC000" fill-rule="evenodd" fill-opacity="0.501961"/><text font-family="Times New Roman,Times New Roman_MSFontService,sans-serif" font-weight="700" font-size="27" transform="translate(361.734 181)">Y<tspan font-family="Cambria Math,Cambria Math_MSFontService,sans-serif" font-weight="400" font-size="24" x="112.041" y="17">𝑃</tspan><tspan font-family="Cambria Math,Cambria Math_MSFontService,sans-serif" font-weight="400" font-size="18" x="123.741" y="21">1</tspan></text><g clip-path="url(#clip1)"><g clip-path="url(#clip2)"><g clip-path="url(#clip3)"><path d="M489.62 165.851C492.383 164.02 494.214 160.892 494.214 157.339 494.214 151.705 489.633 147.125 484 147.125 478.367 147.125 473.786 151.705 473.786 157.339 473.786 160.892 475.617 164.025 478.38 165.851 471.273 168.046 466.125 174.268 466.125 181.599 466.125 182.304 466.696 182.875 467.401 182.875 468.106 182.875 468.677 182.304 468.677 181.599 468.677 173.856 475.548 167.552 484 167.552 492.448 167.552 499.323 173.852 499.323 181.599 499.323 182.304 499.894 182.875 500.599 182.875 501.304 182.875 501.875 182.304 501.875 181.599 501.875 174.268 496.727 168.046 489.62 165.851ZM476.339 157.339C476.339 153.115 479.776 149.677 484 149.677 488.224 149.677 491.661 153.115 491.661 157.339 491.661 161.562 488.224 165 484 165 479.776 165 476.339 161.562 476.339 157.339Z" fill="#0D0D0D"/></g></g></g><g clip-path="url(#clip4)"><g clip-path="url(#clip5)"><g clip-path="url(#clip6)"><path d="M121.62 165.851C124.383 164.02 126.214 160.892 126.214 157.339 126.214 151.705 121.633 147.125 116 147.125 110.367 147.125 105.786 151.705 105.786 157.339 105.786 160.892 107.617 164.025 110.38 165.851 103.273 168.046 98.125 174.268 98.125 181.599 98.125 182.304 98.6965 182.875 99.4012 182.875 100.106 182.875 100.677 182.304 100.677 181.599 100.677 173.856 107.548 167.552 116 167.552 124.448 167.552 131.323 173.852 131.323 181.599 131.323 182.304 131.894 182.875 132.599 182.875 133.304 182.875 133.875 182.304 133.875 181.599 133.875 174.268 128.727 168.046 121.62 165.851ZM108.339 157.339C108.339 153.115 111.776 149.677 116 149.677 120.224 149.677 123.661 153.115 123.661 157.339 123.661 161.562 120.224 165 116 165 111.776 165 108.339 161.562 108.339 157.339Z" fill="#0D0D0D"/></g></g></g><text font-family="Times New Roman,Times New Roman_MSFontService,sans-serif" font-weight="700" font-size="24" transform="translate(273.195 179)">X <tspan font-family="Cambria Math,Cambria Math_MSFontService,sans-serif" font-weight="400" font-size="24" x="23.3333" y="0">∩</tspan><tspan font-family="Cambria Math,Cambria Math_MSFontService,sans-serif" font-weight="400" font-size="24" x="39.6667" y="0"> </tspan><tspan font-size="24" x="45" y="0">Y</tspan></text></g></svg>